<svg width="255" height="93" viewBox="0 0 255 93" fill="none" xmlns="http://www.w3.org/2000/svg">
<path d="M7.9 69V23.36H20.5C23.8133 23.36 26.8233 23.8033 29.53 24.69C32.2367 25.5767 34.5467 26.9533 36.46 28.82C38.3733 30.64 39.8433 32.9733 40.87 35.82C41.9433 38.6667 42.48 42.05 42.48 45.97C42.48 49.89 41.9667 53.2967 40.94 56.19C39.9133 59.0833 38.4433 61.4867 36.53 63.4C34.6633 65.2667 32.4233 66.6667 29.81 67.6C27.1967 68.5333 24.3033 69 21.13 69H7.9ZM18.26 60.67H19.94C21.7133 60.67 23.3233 60.4133 24.77 59.9C26.2633 59.3867 27.5233 58.57 28.55 57.45C29.6233 56.2833 30.44 54.7667 31 52.9C31.6067 51.0333 31.91 48.7233 31.91 45.97C31.91 43.2633 31.6067 41 31 39.18C30.44 37.3133 29.6233 35.8433 28.55 34.77C27.5233 33.65 26.2633 32.8567 24.77 32.39C23.3233 31.9233 21.7133 31.69 19.94 31.69H18.26V60.67ZM51.4127 69V23.36H81.6527V32.04H61.7727V41.21H78.6427V49.82H61.7727V60.32H82.3527V69H51.4127ZM110.955 69.84C108.015 69.84 105.262 69.35 102.695 68.37C100.175 67.3433 97.9586 65.85 96.0453 63.89C94.1786 61.93 92.7086 59.5033 91.6353 56.61C90.562 53.67 90.0253 50.2867 90.0253 46.46C90.0253 42.6333 90.562 39.25 91.6353 36.31C92.7553 33.3233 94.2486 30.8267 96.1153 28.82C98.0286 26.7667 100.269 25.2033 102.835 24.13C105.402 23.0567 108.155 22.52 111.095 22.52C114.175 22.52 116.789 23.1267 118.935 24.34C121.129 25.5067 122.972 26.8367 124.465 28.33L118.795 34.7C117.815 33.72 116.742 32.9267 115.575 32.32C114.409 31.7133 112.915 31.41 111.095 31.41C109.602 31.41 108.225 31.76 106.965 32.46C105.705 33.1133 104.609 34.07 103.675 35.33C102.742 36.59 101.995 38.13 101.435 39.95C100.922 41.77 100.665 43.8233 100.665 46.11C100.665 50.8233 101.552 54.4867 103.325 57.1C105.145 59.6667 107.875 60.95 111.515 60.95C112.402 60.95 113.242 60.8333 114.035 60.6C114.829 60.3667 115.482 60.0167 115.995 59.55V51.71H109.345V43.31H125.235V64.31C123.695 65.7567 121.665 67.04 119.145 68.16C116.625 69.28 113.895 69.84 110.955 69.84ZM149.918 69.84C147.211 69.84 144.715 69.3267 142.428 68.3C140.188 67.2733 138.251 65.7567 136.618 63.75C135.031 61.7433 133.795 59.27 132.908 56.33C132.021 53.3433 131.578 49.89 131.578 45.97C131.578 42.1433 132.021 38.7833 132.908 35.89C133.795 32.95 135.031 30.5 136.618 28.54C138.251 26.5333 140.188 25.04 142.428 24.06C144.715 23.0333 147.211 22.52 149.918 22.52C152.625 22.52 155.098 23.0333 157.338 24.06C159.625 25.04 161.561 26.5333 163.148 28.54C164.781 30.5 166.041 32.95 166.928 35.89C167.815 38.7833 168.258 42.1433 168.258 45.97C168.258 49.89 167.815 53.3433 166.928 56.33C166.041 59.27 164.781 61.7433 163.148 63.75C161.561 65.7567 159.625 67.2733 157.338 68.3C155.098 69.3267 152.625 69.84 149.918 69.84ZM149.918 60.95C152.298 60.95 154.188 59.69 155.588 57.17C156.988 54.65 157.688 50.9167 157.688 45.97C157.688 41.21 156.988 37.5933 155.588 35.12C154.188 32.6467 152.298 31.41 149.918 31.41C147.538 31.41 145.648 32.6467 144.248 35.12C142.848 37.5933 142.148 41.21 142.148 45.97C142.148 50.9167 142.848 54.65 144.248 57.17C145.648 59.69 147.538 60.95 149.918 60.95ZM191.751 69.84C188.671 69.84 185.614 69.3033 182.581 68.23C179.594 67.11 176.864 65.4533 174.391 63.26L180.341 56.19C182.067 57.59 183.957 58.7333 186.011 59.62C188.064 60.5067 190.211 60.95 192.451 60.95C194.691 60.95 196.324 60.5767 197.351 59.83C198.377 59.0833 198.891 58.1267 198.891 56.96C198.891 56.1667 198.727 55.5133 198.401 55C198.074 54.44 197.607 53.95 197.001 53.53C196.394 53.11 195.647 52.7133 194.761 52.34C193.874 51.9667 192.894 51.5467 191.821 51.08L185.941 48.56C184.681 48.0933 183.444 47.4867 182.231 46.74C181.064 45.9933 180.037 45.13 179.151 44.15C178.264 43.1233 177.541 41.9567 176.981 40.65C176.467 39.2967 176.211 37.78 176.211 36.1C176.211 34.2333 176.607 32.4833 177.401 30.85C178.241 29.17 179.384 27.7233 180.831 26.51C182.324 25.25 184.097 24.27 186.151 23.57C188.204 22.87 190.467 22.52 192.941 22.52C195.741 22.52 198.447 23.0333 201.061 24.06C203.674 25.0867 206.031 26.58 208.131 28.54L202.881 35.05C201.294 33.8833 199.707 32.9967 198.121 32.39C196.534 31.7367 194.621 31.41 192.381 31.41C190.654 31.41 189.254 31.76 188.181 32.46C187.154 33.16 186.641 34.1867 186.641 35.54C186.641 36.8933 187.317 37.9433 188.671 38.69C190.071 39.39 191.891 40.1367 194.131 40.93L199.661 43.31C202.694 44.43 205.074 45.97 206.801 47.93C208.574 49.89 209.461 52.48 209.461 55.7C209.461 57.6133 209.064 59.4333 208.271 61.16C207.477 62.84 206.334 64.3333 204.841 65.64C203.347 66.9 201.504 67.9267 199.311 68.72C197.117 69.4667 194.597 69.84 191.751 69.84ZM217.343 69V23.36H227.633V40.93H240.093V23.36H250.383V69H240.093V49.96H227.633V69H217.343Z" fill="black"/>
<path d="M4.9 74H2.9V76H4.9V74ZM4.9 28.36V26.36H2.9V28.36H4.9ZM33.46 33.82L32.0634 35.2516L32.0724 35.2604L32.0816 35.2691L33.46 33.82ZM37.87 40.82L35.9886 41.4985L35.9935 41.5121L35.9986 41.5256L37.87 40.82ZM37.94 61.19L39.8249 61.8588L37.94 61.19ZM33.53 68.4L34.9442 69.8142L33.53 68.4ZM15.26 65.67H13.26V67.67H15.26V65.67ZM21.77 64.9L21.1198 63.0086L21.1105 63.0118L21.1012 63.0151L21.77 64.9ZM25.55 62.45L24.0781 61.0959L24.0757 61.0986L25.55 62.45ZM28 57.9L26.0979 57.2818L26.0909 57.3035L26.0843 57.3253L28 57.9ZM28 44.18L26.0843 44.7547L26.0931 44.7837L26.1026 44.8125L28 44.18ZM25.55 39.77L24.0757 41.1214L24.1051 41.1535L24.1358 41.1842L25.55 39.77ZM21.77 37.39L21.156 39.2934L21.1647 39.2962L21.1735 39.299L21.77 37.39ZM15.26 36.69V34.69H13.26V36.69H15.26ZM6.9 74V28.36H2.9V74H6.9ZM4.9 30.36H17.5V26.36H4.9V30.36ZM17.5 30.36C20.6356 30.36 23.4314 30.7795 25.9074 31.5906L27.1526 27.7894C24.2152 26.8271 20.9911 26.36 17.5 26.36V30.36ZM25.9074 31.5906C28.3431 32.3885 30.383 33.6122 32.0634 35.2516L34.8566 32.3884C32.7103 30.2945 30.1303 28.7648 27.1526 27.7894L25.9074 31.5906ZM32.0816 35.2691C33.7388 36.8455 35.052 38.9015 35.9886 41.4985L39.7514 40.1415C38.6347 37.0452 37.0079 34.4345 34.8384 32.3709L32.0816 35.2691ZM35.9986 41.5256C36.9663 44.0922 37.48 47.2248 37.48 50.97H41.48C41.48 46.8752 40.9203 43.2412 39.7414 40.1144L35.9986 41.5256ZM37.48 50.97C37.48 54.7222 36.9878 57.8927 36.0551 60.5212L39.8249 61.8588C40.9455 58.7006 41.48 55.0578 41.48 50.97H37.48ZM36.0551 60.5212C35.1145 63.172 33.7921 65.3095 32.1158 66.9858L34.9442 69.8142C37.0946 67.6638 38.7121 64.9947 39.8249 61.8588L36.0551 60.5212ZM32.1158 66.9858C30.4692 68.6324 28.4864 69.8776 26.1373 70.7165L27.4827 74.4835C30.3603 73.4558 32.8574 71.901 34.9442 69.8142L32.1158 66.9858ZM26.1373 70.7165C23.7685 71.5625 21.1065 72 18.13 72V76C21.5001 76 24.6249 75.5041 27.4827 74.4835L26.1373 70.7165ZM18.13 72H4.9V76H18.13V72ZM15.26 67.67H16.94V63.67H15.26V67.67ZM16.94 67.67C18.9064 67.67 20.7469 67.3852 22.4388 66.7849L21.1012 63.0151C19.8997 63.4415 18.5202 63.67 16.94 63.67V67.67ZM22.4202 66.7914C24.2161 66.174 25.7632 65.1772 27.0243 63.8014L24.0757 61.0986C23.2834 61.9628 22.3106 62.5993 21.1198 63.0086L22.4202 66.7914ZM27.0219 63.8041C28.3418 62.3694 29.2882 60.5662 29.9157 58.4747L26.0843 57.3253C25.5918 58.9671 24.9049 60.1973 24.0781 61.0959L27.0219 63.8041ZM29.9021 58.5182C30.5939 56.3894 30.91 53.8556 30.91 50.97H26.91C26.91 53.5911 26.6194 55.6773 26.0979 57.2818L29.9021 58.5182ZM30.91 50.97C30.91 48.1294 30.5936 45.6363 29.8974 43.5475L26.1026 44.8125C26.6197 46.3637 26.91 48.3972 26.91 50.97H30.91ZM29.9157 43.6053C29.2868 41.5093 28.3287 39.7203 26.9642 38.3558L24.1358 41.1842C24.918 41.9664 25.5932 43.1174 26.0843 44.7547L29.9157 43.6053ZM27.0243 38.4185C25.752 37.0306 24.186 36.0496 22.3666 35.481L21.1735 39.299C22.3406 39.6637 23.2946 40.2694 24.0757 41.1214L27.0243 38.4185ZM22.384 35.4866C20.7091 34.9463 18.8879 34.69 16.94 34.69V38.69C18.5388 38.69 19.9376 38.9004 21.156 39.2934L22.384 35.4866ZM16.94 34.69H15.26V38.69H16.94V34.69ZM13.26 36.69V65.67H17.26V36.69H13.26ZM48.4127 74H46.4127V76H48.4127V74ZM48.4127 28.36V26.36H46.4127V28.36H48.4127ZM78.6527 28.36H80.6527V26.36H78.6527V28.36ZM78.6527 37.04V39.04H80.6527V37.04H78.6527ZM58.7727 37.04V35.04H56.7727V37.04H58.7727ZM58.7727 46.21H56.7727V48.21H58.7727V46.21ZM75.6427 46.21H77.6427V44.21H75.6427V46.21ZM75.6427 54.82V56.82H77.6427V54.82H75.6427ZM58.7727 54.82V52.82H56.7727V54.82H58.7727ZM58.7727 65.32H56.7727V67.32H58.7727V65.32ZM79.3527 65.32H81.3527V63.32H79.3527V65.32ZM79.3527 74V76H81.3527V74H79.3527ZM50.4127 74V28.36H46.4127V74H50.4127ZM48.4127 30.36H78.6527V26.36H48.4127V30.36ZM76.6527 28.36V37.04H80.6527V28.36H76.6527ZM78.6527 35.04H58.7727V39.04H78.6527V35.04ZM56.7727 37.04V46.21H60.7727V37.04H56.7727ZM58.7727 48.21H75.6427V44.21H58.7727V48.21ZM73.6427 46.21V54.82H77.6427V46.21H73.6427ZM75.6427 52.82H58.7727V56.82H75.6427V52.82ZM56.7727 54.82V65.32H60.7727V54.82H56.7727ZM58.7727 67.32H79.3527V63.32H58.7727V67.32ZM77.3527 65.32V74H81.3527V65.32H77.3527ZM79.3527 72H48.4127V76H79.3527V72ZM99.6953 73.37L98.9407 75.2222L98.9612 75.2305L98.9819 75.2384L99.6953 73.37ZM93.0453 68.89L91.597 70.2693L91.6055 70.2782L91.6142 70.2871L93.0453 68.89ZM88.6353 61.61L86.7566 62.2959L86.7602 62.3056L88.6353 61.61ZM88.6353 41.31L86.7627 40.6078L86.7596 40.6159L86.7566 40.6241L88.6353 41.31ZM93.1153 33.82L91.6521 32.4565L91.6509 32.4578L93.1153 33.82ZM99.8353 29.13L100.607 30.9752L99.8353 29.13ZM115.935 29.34L114.951 31.0811L114.973 31.0937L114.996 31.1057L115.935 29.34ZM121.465 33.33L122.959 34.6597L124.214 33.2502L122.88 31.9158L121.465 33.33ZM115.795 39.7L114.381 41.1142L115.88 42.613L117.289 41.0297L115.795 39.7ZM112.575 37.32L113.498 35.5456V35.5456L112.575 37.32ZM103.965 37.46L104.886 39.2355L104.911 39.2223L104.937 39.2083L103.965 37.46ZM100.675 40.33L99.0682 39.1395L100.675 40.33ZM98.4353 44.95L96.5238 44.3618L96.5168 44.3844L96.5104 44.4071L98.4353 44.95ZM100.325 62.1L98.6704 63.223L98.6819 63.2401L98.6938 63.2569L100.325 62.1ZM111.035 65.6L111.6 67.5187L111.035 65.6ZM112.995 64.55L114.341 66.0299L114.995 65.4347V64.55H112.995ZM112.995 56.71H114.995V54.71H112.995V56.71ZM106.345 56.71H104.345V58.71H106.345V56.71ZM106.345 48.31V46.31H104.345V48.31H106.345ZM122.235 48.31H124.235V46.31H122.235V48.31ZM122.235 69.31L123.605 70.7677L124.235 70.1753V69.31H122.235ZM116.145 73.16L116.958 74.9876L116.145 73.16ZM107.955 72.84C105.242 72.84 102.732 72.3886 100.409 71.5016L98.9819 75.2384C101.792 76.3113 104.789 76.84 107.955 76.84V72.84ZM100.45 71.5178C98.186 70.5955 96.1992 69.2577 94.4765 67.4929L91.6142 70.2871C93.7181 72.4423 96.1646 74.0912 98.9407 75.2222L100.45 71.5178ZM94.4936 67.5107C92.8386 65.7729 91.5025 63.5887 90.5104 60.9144L86.7602 62.3056C87.9148 65.4179 89.5187 68.0871 91.597 70.2693L94.4936 67.5107ZM90.514 60.9241C89.5366 58.2467 89.0253 55.1031 89.0253 51.46H85.0253C85.0253 55.4703 85.5874 59.0933 86.7566 62.2959L90.514 60.9241ZM89.0253 51.46C89.0253 47.8169 89.5366 44.6733 90.514 41.9959L86.7566 40.6241C85.5874 43.8267 85.0253 47.4497 85.0253 51.46H89.0253ZM90.508 42.0122C91.5511 39.2306 92.9176 36.969 94.5797 35.1822L91.6509 32.4578C89.5797 34.6844 87.9595 37.4161 86.7627 40.6078L90.508 42.0122ZM94.5785 35.1835C96.2999 33.3361 98.3048 31.9379 100.607 30.9752L99.0637 27.2848C96.2325 28.4688 93.7574 30.1972 91.6521 32.4565L94.5785 35.1835ZM100.607 30.9752C102.915 30.0098 105.405 29.52 108.095 29.52V25.52C104.906 25.52 101.888 26.1036 99.0637 27.2848L100.607 30.9752ZM108.095 29.52C110.915 29.52 113.171 30.0748 114.951 31.0811L116.919 27.5989C114.407 26.1785 111.435 25.52 108.095 25.52V29.52ZM114.996 31.1057C117.045 32.1953 118.72 33.4131 120.051 34.7442L122.88 31.9158C121.224 30.2603 119.213 28.818 116.875 27.5743L114.996 31.1057ZM119.971 32.0003L114.301 38.3703L117.289 41.0297L122.959 34.6597L119.971 32.0003ZM117.21 38.2858C116.093 37.1691 114.856 36.2515 113.498 35.5456L111.653 39.0944C112.628 39.6019 113.538 40.2709 114.381 41.1142L117.21 38.2858ZM113.498 35.5456C111.958 34.7449 110.12 34.41 108.095 34.41V38.41C109.711 38.41 110.859 38.6818 111.653 39.0944L113.498 35.5456ZM108.095 34.41C106.275 34.41 104.562 34.8405 102.994 35.7117L104.937 39.2083C105.889 38.6795 106.929 38.41 108.095 38.41V34.41ZM103.045 35.6845C101.487 36.4922 100.164 37.6608 99.0682 39.1395L102.282 41.5205C103.054 40.4792 103.924 39.7345 104.886 39.2355L103.045 35.6845ZM99.0682 39.1395C97.9746 40.6159 97.1366 42.3702 96.5238 44.3618L100.347 45.5382C100.854 43.8898 101.509 42.5641 102.282 41.5205L99.0682 39.1395ZM96.5104 44.4071C95.9381 46.4361 95.6653 48.6767 95.6653 51.11H99.6653C99.6653 48.97 99.9058 47.1039 100.36 45.4929L96.5104 44.4071ZM95.6653 51.11C95.6653 56.0381 96.5866 60.1523 98.6704 63.223L101.98 60.977C100.517 58.8211 99.6653 55.6086 99.6653 51.11H95.6653ZM98.6938 63.2569C100.952 66.441 104.344 67.95 108.515 67.95V63.95C105.407 63.95 103.339 62.8923 101.957 60.9431L98.6938 63.2569ZM108.515 67.95C109.579 67.95 110.61 67.8097 111.6 67.5187L110.471 63.6813C109.874 63.857 109.225 63.95 108.515 63.95V67.95ZM111.6 67.5187C112.628 67.2163 113.565 66.7354 114.341 66.0299L111.65 63.0701C111.399 63.2979 111.029 63.5171 110.471 63.6813L111.6 67.5187ZM114.995 64.55V56.71H110.995V64.55H114.995ZM112.995 54.71H106.345V58.71H112.995V54.71ZM108.345 56.71V48.31H104.345V56.71H108.345ZM106.345 50.31H122.235V46.31H106.345V50.31ZM120.235 48.31V69.31H124.235V48.31H120.235ZM120.866 67.8523C119.531 69.1065 117.707 70.2773 115.333 71.3324L116.958 74.9876C119.624 73.8027 121.86 72.4069 123.605 70.7677L120.866 67.8523ZM115.333 71.3324C113.085 72.3313 110.634 72.84 107.955 72.84V76.84C111.156 76.84 114.165 76.2287 116.958 74.9876L115.333 71.3324ZM139.428 73.3L138.595 75.1181L138.602 75.1214L138.609 75.1245L139.428 73.3ZM133.618 68.75L132.049 69.9905L132.058 70.0016L132.067 70.0125L133.618 68.75ZM129.908 61.33L127.991 61.8992L127.993 61.9075L129.908 61.33ZM129.908 40.89L131.82 41.476L131.823 41.4675L129.908 40.89ZM133.618 33.54L132.067 32.2775L132.063 32.2816L133.618 33.54ZM139.428 29.06L140.23 30.8923L140.238 30.8885L140.247 30.8845L139.428 29.06ZM154.338 29.06L153.505 30.8781L153.527 30.8885L153.55 30.8983L154.338 29.06ZM160.148 33.54L158.579 34.7805L158.595 34.8006L158.612 34.8204L160.148 33.54ZM163.928 40.89L162.013 41.4675L162.016 41.476L163.928 40.89ZM163.928 61.33L165.843 61.9075L165.845 61.8992L163.928 61.33ZM160.148 68.75L158.597 67.4875L158.588 67.4984L158.579 67.5095L160.148 68.75ZM154.338 73.3L153.519 71.4755L153.512 71.4786L153.505 71.4819L154.338 73.3ZM152.588 62.17L150.84 61.1987L152.588 62.17ZM152.588 40.12L154.328 39.1348L152.588 40.12ZM141.248 40.12L139.507 39.1348L141.248 40.12ZM141.248 62.17L142.996 61.1987L141.248 62.17ZM146.918 72.84C144.471 72.84 142.256 72.3775 140.247 71.4755L138.609 75.1245C141.173 76.2759 143.952 76.84 146.918 76.84V72.84ZM140.261 71.4819C138.314 70.5893 136.619 69.2686 135.169 67.4875L132.067 70.0125C133.884 72.2448 136.062 73.9573 138.595 75.1181L140.261 71.4819ZM135.187 67.5095C133.784 65.7354 132.651 63.4988 131.823 60.7525L127.993 61.9075C128.938 65.0412 130.279 67.7513 132.049 69.9905L135.187 67.5095ZM131.825 60.7608C131.005 57.9994 130.578 54.7446 130.578 50.97H126.578C126.578 55.0354 127.037 58.6873 127.991 61.8992L131.825 60.7608ZM130.578 50.97C130.578 47.292 131.005 44.137 131.82 41.476L127.996 40.304C127.038 43.4297 126.578 46.9947 126.578 50.97H130.578ZM131.823 41.4675C132.65 38.7231 133.78 36.5182 135.172 34.7984L132.063 32.2816C130.282 34.4818 128.939 37.1769 127.993 40.3125L131.823 41.4675ZM135.169 34.8025C136.614 33.0279 138.298 31.7373 140.23 30.8923L138.626 27.2277C136.078 28.3427 133.889 30.0387 132.067 32.2775L135.169 34.8025ZM140.247 30.8845C142.256 29.9825 144.471 29.52 146.918 29.52V25.52C143.952 25.52 141.173 26.0841 138.609 27.2355L140.247 30.8845ZM146.918 29.52C149.366 29.52 151.551 29.9827 153.505 30.8781L155.171 27.2419C152.645 26.084 149.884 25.52 146.918 25.52V29.52ZM153.55 30.8983C155.522 31.7433 157.193 33.0273 158.579 34.7805L161.717 32.2995C159.93 30.0394 157.727 28.3367 155.126 27.2217L153.55 30.8983ZM158.612 34.8204C160.042 36.5364 161.189 38.7335 162.013 41.4675L165.843 40.3125C164.894 37.1665 163.521 34.4636 161.684 32.2596L158.612 34.8204ZM162.016 41.476C162.831 44.137 163.258 47.292 163.258 50.97H167.258C167.258 46.9947 166.798 43.4297 165.84 40.304L162.016 41.476ZM163.258 50.97C163.258 54.7446 162.83 57.9994 162.011 60.7608L165.845 61.8992C166.799 58.6873 167.258 55.0354 167.258 50.97H163.258ZM162.013 60.7525C161.188 63.4884 160.038 65.7173 158.597 67.4875L161.699 70.0125C163.525 67.7694 164.895 65.0516 165.843 61.9075L162.013 60.7525ZM158.579 67.5095C157.188 69.2695 155.506 70.5832 153.519 71.4755L155.157 75.1245C157.743 73.9635 159.935 72.2438 161.717 69.9905L158.579 67.5095ZM153.505 71.4819C151.551 72.3773 149.366 72.84 146.918 72.84V76.84C149.884 76.84 152.645 76.276 155.171 75.1181L153.505 71.4819ZM146.918 67.95C150.19 67.95 152.672 66.1372 154.336 63.1413L150.84 61.1987C149.704 63.2428 148.406 63.95 146.918 63.95V67.95ZM154.336 63.1413C155.981 60.1817 156.688 56.0441 156.688 50.97H152.688C152.688 55.7892 151.995 59.1183 150.84 61.1987L154.336 63.1413ZM156.688 50.97C156.688 46.0706 155.977 42.0477 154.328 39.1348L150.847 41.1052C151.999 43.139 152.688 46.3494 152.688 50.97H156.688ZM154.328 39.1348C152.655 36.1789 150.171 34.41 146.918 34.41V38.41C148.425 38.41 149.721 39.1145 150.847 41.1052L154.328 39.1348ZM146.918 34.41C143.665 34.41 141.181 36.1789 139.507 39.1348L142.988 41.1052C144.115 39.1145 145.411 38.41 146.918 38.41V34.41ZM139.507 39.1348C137.859 42.0477 137.148 46.0706 137.148 50.97H141.148C141.148 46.3494 141.837 43.139 142.988 41.1052L139.507 39.1348ZM137.148 50.97C137.148 56.0441 137.855 60.1817 139.5 63.1413L142.996 61.1987C141.841 59.1183 141.148 55.7892 141.148 50.97H137.148ZM139.5 63.1413C141.164 66.1372 143.646 67.95 146.918 67.95V63.95C145.43 63.95 144.132 63.2428 142.996 61.1987L139.5 63.1413ZM179.581 73.23L178.878 75.1027L178.896 75.1092L178.913 75.1154L179.581 73.23ZM171.391 68.26L169.86 66.9722L168.606 68.4633L170.064 69.7564L171.391 68.26ZM177.341 61.19L178.6 59.6365L177.075 58.3997L175.81 59.9022L177.341 61.19ZM183.011 64.62L182.218 66.4561L183.011 64.62ZM194.351 64.83L193.174 63.2125L194.351 64.83ZM195.401 60L193.673 61.0077L193.693 61.0411L193.713 61.0737L195.401 60ZM194.001 58.53L195.139 56.8856L195.139 56.8856L194.001 58.53ZM188.821 56.08L189.618 54.2458L189.608 54.2417L188.821 56.08ZM182.941 53.56L183.728 51.7217L183.682 51.7019L183.635 51.6845L182.941 53.56ZM179.231 51.74L178.153 53.4245L178.167 53.4341L178.182 53.4433L179.231 51.74ZM176.151 49.15L174.637 50.4572L174.652 50.4747L174.668 50.4918L176.151 49.15ZM173.981 45.65L172.111 46.3593L172.126 46.3989L172.142 46.4378L173.981 45.65ZM174.401 35.85L172.612 34.9556L172.607 34.9659L172.602 34.9762L174.401 35.85ZM177.831 31.51L179.116 33.0424L179.12 33.0386L177.831 31.51ZM183.151 28.57L182.505 26.677V26.677L183.151 28.57ZM205.131 33.54L206.687 34.7955L207.855 33.3473L206.495 32.0779L205.131 33.54ZM199.881 40.05L198.696 41.6613L200.237 42.7943L201.437 41.3055L199.881 40.05ZM195.121 37.39L194.359 39.2394L194.383 39.249L194.406 39.2581L195.121 37.39ZM185.181 37.46L184.088 35.7848L184.071 35.796L184.054 35.8075L185.181 37.46ZM185.671 43.69L184.704 45.4412L184.74 45.4607L184.776 45.4789L185.671 43.69ZM191.131 45.93L191.921 44.0929L191.861 44.0668L191.798 44.0447L191.131 45.93ZM196.661 48.31L195.87 50.1471L195.918 50.1679L195.968 50.1862L196.661 48.31ZM203.801 52.93L202.3 54.2521L202.309 54.262L202.318 54.2718L203.801 52.93ZM205.271 66.16L207.079 67.014L207.084 67.0045L207.088 66.995L205.271 66.16ZM201.841 70.64L203.13 72.1686L203.144 72.157L203.158 72.1452L201.841 70.64ZM196.311 73.72L196.955 75.6133L196.973 75.6072L196.991 75.6008L196.311 73.72ZM188.751 72.84C185.908 72.84 183.077 72.3455 180.248 71.3446L178.913 75.1154C182.151 76.2612 185.433 76.84 188.751 76.84V72.84ZM180.283 71.3573C177.534 70.3265 175.014 68.8003 172.718 66.7636L170.064 69.7564C172.714 72.1064 175.654 73.8935 178.878 75.1027L180.283 71.3573ZM172.921 69.5478L178.871 62.4778L175.81 59.9022L169.86 66.9722L172.921 69.5478ZM176.081 62.7435C177.951 64.2593 179.998 65.4975 182.218 66.4561L183.803 62.7839C181.917 61.9692 180.184 60.9207 178.6 59.6365L176.081 62.7435ZM182.218 66.4561C184.522 67.4511 186.938 67.95 189.451 67.95V63.95C187.483 63.95 185.606 63.5623 183.803 62.7839L182.218 66.4561ZM189.451 67.95C191.827 67.95 193.983 67.5701 195.527 66.4475L193.174 63.2125C192.665 63.5832 191.554 63.95 189.451 63.95V67.95ZM195.527 66.4475C197.018 65.3631 197.891 63.8295 197.891 61.96H193.891C193.891 62.4239 193.737 62.8036 193.174 63.2125L195.527 66.4475ZM197.891 61.96C197.891 60.8999 197.672 59.8445 197.088 58.9262L193.713 61.0737C193.782 61.1822 193.891 61.4334 193.891 61.96H197.891ZM197.128 58.9923C196.635 58.1467 195.953 57.4491 195.139 56.8856L192.862 60.1744C193.262 60.4509 193.513 60.7333 193.673 61.0077L197.128 58.9923ZM195.139 56.8856C194.391 56.3675 193.515 55.9085 192.537 55.4967L190.985 59.1833C191.78 59.5182 192.397 59.8525 192.862 60.1744L195.139 56.8856ZM192.537 55.4967C191.659 55.127 190.686 54.7101 189.618 54.2459L188.023 57.9141C189.102 58.3833 190.089 58.8064 190.985 59.1833L192.537 55.4967ZM189.608 54.2417L183.728 51.7217L182.153 55.3983L188.033 57.9183L189.608 54.2417ZM183.635 51.6845C182.506 51.2661 181.387 50.7186 180.279 50.0367L178.182 53.4433C179.501 54.2547 180.856 54.9205 182.246 55.4355L183.635 51.6845ZM180.309 50.0555C179.284 49.3999 178.396 48.6503 177.634 47.8082L174.668 50.4918C175.679 51.6097 176.843 52.5867 178.153 53.4245L180.309 50.0555ZM177.664 47.8428C176.918 46.9789 176.302 45.9892 175.819 44.8622L172.142 46.4378C172.779 47.9242 173.61 49.2678 174.637 50.4572L177.664 47.8428ZM175.851 44.9407C175.436 43.8472 175.211 42.576 175.211 41.1H171.211C171.211 42.984 171.499 44.7461 172.111 46.3593L175.851 44.9407ZM175.211 41.1C175.211 39.5273 175.542 38.0771 176.2 36.7238L172.602 34.9762C171.672 36.8896 171.211 38.9394 171.211 41.1H175.211ZM176.189 36.7444C176.906 35.3106 177.878 34.0807 179.116 33.0424L176.545 29.9776C174.89 31.3659 173.575 33.0294 172.612 34.9556L176.189 36.7444ZM179.12 33.0386C180.404 31.9559 181.952 31.0915 183.796 30.463L182.505 26.677C180.242 27.4485 178.244 28.5441 176.541 29.9814L179.12 33.0386ZM183.796 30.463C185.615 29.843 187.657 29.52 189.941 29.52V25.52C187.278 25.52 184.793 25.897 182.505 26.677L183.796 30.463ZM189.941 29.52C192.49 29.52 194.948 29.9861 197.329 30.9215L198.792 27.1985C195.946 26.0806 192.992 25.52 189.941 25.52V29.52ZM197.329 30.9215C199.703 31.8539 201.846 33.2099 203.766 35.0021L206.495 32.0779C204.216 29.9501 201.645 28.3194 198.792 27.1985L197.329 30.9215ZM203.574 32.2845L198.324 38.7945L201.437 41.3055L206.687 34.7955L203.574 32.2845ZM201.065 38.4387C199.357 37.1822 197.613 36.2019 195.835 35.5219L194.406 39.2581C195.801 39.7914 197.231 40.5845 198.696 41.6613L201.065 38.4387ZM195.882 35.5406C193.992 34.7625 191.806 34.41 189.381 34.41V38.41C191.435 38.41 193.076 38.7108 194.359 39.2394L195.882 35.5406ZM189.381 34.41C187.397 34.41 185.581 34.811 184.088 35.7848L186.273 39.1352C186.927 38.709 187.911 38.41 189.381 38.41V34.41ZM184.054 35.8075C182.426 36.9176 181.641 38.5948 181.641 40.54H185.641C185.641 39.7786 185.882 39.4024 186.307 39.1125L184.054 35.8075ZM181.641 40.54C181.641 42.7389 182.823 44.4031 184.704 45.4412L186.637 41.9388C185.812 41.4836 185.641 41.0477 185.641 40.54H181.641ZM184.776 45.4789C186.277 46.2292 188.181 47.007 190.463 47.8153L191.798 44.0447C189.601 43.2664 187.864 42.5508 186.565 41.9011L184.776 45.4789ZM190.34 47.7671L195.87 50.1471L197.451 46.4729L191.921 44.0929L190.34 47.7671ZM195.968 50.1862C198.763 51.2183 200.839 52.5934 202.3 54.2521L205.301 51.6079C203.309 49.3466 200.625 47.6417 197.353 46.4338L195.968 50.1862ZM202.318 54.2718C203.689 55.7878 204.461 57.8623 204.461 60.7H208.461C208.461 57.0977 207.459 53.9922 205.284 51.5882L202.318 54.2718ZM204.461 60.7C204.461 62.3272 204.125 63.8621 203.453 65.325L207.088 66.995C208.003 65.0045 208.461 62.8995 208.461 60.7H204.461ZM203.462 65.306C202.794 66.7209 201.824 67.9967 200.524 69.1348L203.158 72.1452C204.844 70.67 206.161 68.9591 207.079 67.014L203.462 65.306ZM200.551 69.1114C199.27 70.1926 197.643 71.1112 195.63 71.8392L196.991 75.6008C199.365 74.7422 201.425 73.6074 203.13 72.1686L200.551 69.1114ZM195.666 71.8267C193.722 72.4887 191.426 72.84 188.751 72.84V76.84C191.768 76.84 194.513 76.4446 196.955 75.6133L195.666 71.8267ZM214.343 74H212.343V76H214.343V74ZM214.343 28.36V26.36H212.343V28.36H214.343ZM224.633 28.36H226.633V26.36H224.633V28.36ZM224.633 45.93H222.633V47.93H224.633V45.93ZM237.093 45.93V47.93H239.093V45.93H237.093ZM237.093 28.36V26.36H235.093V28.36H237.093ZM247.383 28.36H249.383V26.36H247.383V28.36ZM247.383 74V76H249.383V74H247.383ZM237.093 74H235.093V76H237.093V74ZM237.093 54.96H239.093V52.96H237.093V54.96ZM224.633 54.96V52.96H222.633V54.96H224.633ZM224.633 74V76H226.633V74H224.633ZM216.343 74V28.36H212.343V74H216.343ZM214.343 30.36H224.633V26.36H214.343V30.36ZM222.633 28.36V45.93H226.633V28.36H222.633ZM224.633 47.93H237.093V43.93H224.633V47.93ZM239.093 45.93V28.36H235.093V45.93H239.093ZM237.093 30.36H247.383V26.36H237.093V30.36ZM245.383 28.36V74H249.383V28.36H245.383ZM247.383 72H237.093V76H247.383V72ZM239.093 74V54.96H235.093V74H239.093ZM237.093 52.96H224.633V56.96H237.093V52.96ZM222.633 54.96V74H226.633V54.96H222.633ZM224.633 72H214.343V76H224.633V72Z" fill="black"/>
</svg>
