<svg width="250" height="250" viewBox="0 0 250 250" fill="none" xmlns="http://www.w3.org/2000/svg">
<path d="M249.973 86.2986L249.359 86.4845H248.665V86.604C244.553 72.929 238.198 60.1303 229.788 48.4999H230.135V47.8228L230.669 47.4377C239.28 59.2806 245.768 72.3581 249.973 86.2986Z" fill="#9866FF"/>
<path d="M249.36 86.484L248.692 86.6837C248.679 86.6571 248.679 86.6304 248.666 86.6038V86.484H249.36Z" fill="#9866FF"/>
<path d="M248.666 91.8671V105.861C246.65 107.613 230.497 120.916 206.387 119.177C180.849 117.318 169.943 97.0848 169.796 96.8193C169.689 96.66 158.822 79.8915 162.053 52.3291C165.03 26.8246 181.13 15.6855 183.559 14.1321C192.277 18.593 200.487 24.0365 208.003 30.3562C205.186 30.6748 199.365 31.9627 194.292 36.9414C188.499 42.6371 185.562 51.3466 185.562 62.8177C185.562 84.6977 194.706 95.7837 212.742 95.7837C219.163 95.7837 221.9 93.4205 222.02 93.3142L222.247 93.1151V76.6387H206.521V53.763H229.789C238.2 65.3934 244.554 78.1921 248.666 91.8671Z" fill="#9866FF"/>
<path d="M248.09 135.223V166.941H247.435L246.794 166.716C246.781 166.756 246.767 166.782 246.754 166.822V135.887H247.422V135.223H248.09Z" fill="#9866FF"/>
<path d="M247.435 166.942H246.754V166.822C246.767 166.782 246.781 166.756 246.794 166.716L247.435 166.942Z" fill="#9866FF"/>
<path d="M247.422 135.223H246.754V135.888H247.422V135.223Z" fill="#9866FF"/>
<path d="M247.424 134.559V135.223H246.756V135.887H218.628V135.223H217.961V134.559H247.424Z" fill="#9866FF"/>
<path d="M230.135 47.8229V48.5H229.788C229.721 48.407 229.655 48.3141 229.588 48.2212L230.135 47.8229Z" fill="#9866FF"/>
<path d="M248.051 167.153C241.816 184.785 231.564 201.221 218.401 214.697L217.907 214.232H218.588V212.573C231.043 199.495 240.762 183.709 246.756 166.821V166.941H247.437L248.051 167.153Z" fill="#9866FF"/>
<path d="M217.961 176.461H217.293V135.223H217.961V135.887H218.629V177.125H217.961V176.461Z" fill="#9866FF"/>
<path d="M218.629 135.223H217.961V135.888H218.629V135.223Z" fill="#9866FF"/>
<path d="M164.36 143.714L150.583 161.08C148.54 159.885 140.971 155.504 137.887 154.535C134.27 153.393 128.463 153.008 126.367 153.008C124.151 153.008 119.865 153.685 117.235 154.654C114.285 155.756 113.845 159.221 113.791 160.655C113.724 162.368 113.965 164.558 116.368 166.391C118.784 168.223 124.818 170.706 129.731 172.352C135.031 174.118 151.491 181.287 154.695 183.106C157.912 184.925 163.145 190.727 163.198 190.78L164.36 192.081V143.714ZM50.2467 128.897C50.3802 128.911 62.8755 130.265 71.5261 138.377C80.2301 146.515 83.9814 156.978 84.0081 157.07L84.6355 156.858L85.2763 157.057C85.303 156.978 88.0397 148.48 89.2011 146.502C89.2812 146.383 96.3966 134.5 112.203 130.424C126.594 126.72 139.316 129.707 139.436 129.747V129.734C140.037 129.906 156.003 134.288 163.225 141.47L163.692 140.992H164.36V130.451H193.022V171.861H193.689V172.524H217.959V171.861H218.626V130.623H246.754V161.558C240.76 178.446 231.041 194.232 218.586 207.309V196.98H192.848V228.22C183.957 233.743 174.412 238.151 164.467 241.377V223.082L163.238 225.047C163.198 225.1 159.407 231.115 154.441 234.872C148.594 239.306 141.158 242.121 132.935 243.01C122.295 244.166 102.417 243.077 91.2703 235.363C83.928 230.291 81.6719 228.472 80.9777 227.848L97.3845 208.557C99.4937 210.244 107.61 216.338 115.887 217.944C125.272 219.763 132.814 218.342 133.242 218.263C133.749 218.077 138.288 216.324 138.862 213.457C139.743 209.075 137.647 205.73 132.427 203.247C128.649 201.441 121.254 198.666 115.313 196.436C111.148 194.856 107.544 193.502 106.823 193.09C106.529 192.931 106.075 192.732 105.488 192.466C102.351 191.072 95.0082 187.806 89.3613 179.176L88.0931 177.238L88.1331 179.548C88.32 190.023 88.1865 195.095 87.6258 199.622C87.0384 204.296 85.6634 215.236 80.951 222.631C76.8793 229.07 71.0856 234.434 69.6972 235.682C60.2857 231.3 51.3815 225.777 43.2115 219.245C47.7904 218.927 49.8462 218.555 52.6096 216.816L53.0635 216.537C56.4677 214.466 64.4241 209.593 64.3173 187.116C64.2105 164.811 57.9228 158.611 57.1485 157.947C56.6546 157.323 52.7031 152.769 43.692 152.769C34.2271 152.769 29.0741 159.819 28.8205 160.177C28.647 160.483 24.7221 167.479 23.6809 173.613C22.5461 180.252 22.5728 189.545 23.7476 195.241C24.4151 198.467 24.8957 200.538 25.443 202.211C14.7499 189.771 6.64667 175.658 1.3335 160.204C1.96093 158.226 7.36757 142.068 20.1432 134.5C33.7198 126.441 50.0465 128.871 50.22 128.897L50.3001 128.38L50.2467 128.897Z" fill="#9866FF"/>
<path d="M218.59 212.573V214.233H217.908L217.441 213.781C217.828 213.383 218.216 212.985 218.59 212.573Z" fill="#9866FF"/>
<path d="M217.961 176.46H217.293V177.126H217.961V176.46Z" fill="#9866FF"/>
<path d="M209.684 25.6502L209.698 24.9731C209.604 24.9731 208.99 24.9731 208.002 25.0926C200.486 18.7729 192.276 13.3295 183.559 8.86851C183.746 8.74902 183.853 8.69591 183.866 8.68264L183.532 8.11173L183.839 7.51428C193.264 12.2939 202.102 18.2286 210.138 25.1325L209.684 25.6502Z" fill="#9866FF"/>
<path d="M208 25.0929C208.988 24.9734 209.603 24.9734 209.696 24.9734L209.683 25.6505L209.256 26.1417C208.841 25.7833 208.414 25.4248 208 25.0929Z" fill="#9866FF"/>
<path d="M194.359 176.46H193.691V177.126H194.359V176.46Z" fill="#9866FF"/>
<path d="M194.36 135.051V176.461H193.692V177.124H193.024V135.714H193.692V135.051H194.36Z" fill="#9866FF"/>
<path d="M217.293 177.124H217.961V177.788H193.691V177.124H194.358V176.46H217.293V177.124Z" fill="#9866FF"/>
<path d="M192.85 202.244H218.588V212.573C218.214 212.985 217.827 213.383 217.44 213.781L217.907 214.233H217.253V203.572H194.185V233.869H193.517L193.157 233.298C193.05 233.364 192.956 233.431 192.85 233.484V202.244Z" fill="#9866FF"/>
<path d="M193.692 135.051H193.024V135.716H193.692V135.051Z" fill="#9866FF"/>
<path d="M193.691 134.386V135.05H193.024V135.714H164.362V135.05H163.694V134.386H193.691Z" fill="#9866FF"/>
<path d="M193.517 233.87H192.85V233.484C192.956 233.431 193.05 233.365 193.157 233.298L193.517 233.87Z" fill="#9866FF"/>
<path d="M209.258 26.1419L209.685 25.6506V26.3012C209.565 26.2879 201.648 26.3012 195.214 32.6342C189.7 38.0776 186.897 46.4552 186.897 57.5545C186.897 89.1929 206.348 89.1929 212.742 89.1929C217.615 89.1929 220.178 87.7324 220.912 87.2279V72.7032H205.186V47.1721H230.137V47.8227L229.589 48.221C229.656 48.3139 229.723 48.4069 229.79 48.4998H206.521V71.3756H222.247V87.8519L222.02 88.0511C221.9 88.1573 219.163 90.5206 212.742 90.5206C194.707 90.5206 185.562 79.4345 185.562 57.5545C185.562 46.0835 188.499 37.3739 194.293 31.6782C199.366 26.6995 205.186 25.4117 208.003 25.093C208.417 25.4249 208.844 25.7834 209.258 26.1419Z" fill="#9866FF"/>
<path d="M183.532 8.11194L183.866 8.68285C183.852 8.69612 183.746 8.74923 183.559 8.86872C183.452 8.81561 183.331 8.74922 183.225 8.69612L183.532 8.11194Z" fill="#9866FF"/>
<path d="M164.643 93.7126V117.557H87.508V82.4141L86.1731 82.3875C86.1731 82.4672 85.7192 90.3801 77.5358 100.563C69.0054 111.198 53.3595 117.557 43.1604 117.557H3.03125C3.0446 115.433 3.098 107.48 3.098 82.6C9.5192 66.0041 19.171 51.1608 31.7731 38.455V95.027L32.3738 95.0933C32.5073 95.1066 33.4418 95.1996 34.8969 95.1996C39.1822 95.1996 48.0197 94.3764 54.9482 88.216C61.0757 82.7726 64.1861 74.4746 64.1861 63.5346C64.1861 50.643 61.2626 41.2298 55.5088 35.5474C51.7976 31.9096 47.0719 29.9446 41.3582 29.6924C48.7539 23.5586 56.8438 18.2744 65.3876 13.9462C82.4619 21.3148 86.1464 41.0174 86.1864 41.2165L87.508 41.0971V6.59094H163.027V30.3164H116.103V49.01H156.099V72.7354H116.103V93.7126H164.643Z" fill="#9866FF"/>
<path d="M164.469 246.641V247.544H163.801L163.601 246.92C163.894 246.827 164.188 246.734 164.469 246.641Z" fill="#9866FF"/>
<path d="M164.469 246.641C174.415 243.415 183.96 239.007 192.851 233.484V233.869H193.518L193.865 234.427C184.534 240.255 174.481 244.875 164.002 248.181L163.802 247.544H164.469V246.641Z" fill="#9866FF"/>
<path d="M164.362 135.714V146.256H163.694L164.162 145.791C163.801 145.433 163.427 145.088 163.026 144.743V135.051H163.694V135.714H164.362Z" fill="#9866FF"/>
<path d="M164.362 135.051H163.694V135.716H164.362V135.051Z" fill="#9866FF"/>
<path d="M164.162 145.791L163.694 146.256H163.026V144.742C163.427 145.088 163.801 145.433 164.162 145.791Z" fill="#9866FF"/>
<path d="M163.224 146.734C156.002 139.551 140.036 135.17 139.435 134.997L139.609 134.294L139.769 133.723C140.423 133.882 155.094 137.852 163.024 144.743V146.256H163.691L163.224 146.734Z" fill="#9866FF"/>
<path d="M160.117 57.169C160.117 53.9428 160.29 50.5174 160.717 46.9061C161.639 38.98 163.815 32.4213 166.458 27.0575C173.213 13.3692 183.065 7.60713 183.198 7.52747L183.532 8.11164L183.225 8.69582C183.332 8.74893 183.452 8.81532 183.559 8.86842C181.129 10.4218 165.029 21.5609 162.052 47.0655C158.822 74.6279 169.688 91.3963 169.795 91.5557C169.942 91.8212 180.849 112.055 206.387 113.914C230.496 115.653 246.649 102.35 248.665 100.597V86.6034C248.679 86.63 248.678 86.6566 248.692 86.6831L249.359 86.4839H250V101.181L249.787 101.38C249.626 101.526 234.421 115.387 210.712 115.387C209.27 115.387 207.802 115.334 206.293 115.228C179.994 113.329 168.767 92.4452 168.647 92.2328C168.62 92.1929 167.472 90.4271 166.017 87.108C163.508 81.3857 160.117 71.0564 160.117 57.169Z" fill="#9866FF"/>
<path d="M139.424 134.997L139.611 134.294L139.438 134.997H139.424Z" fill="#9866FF"/>
<path d="M139.438 135.011C139.318 134.971 126.595 131.984 112.204 135.688L111.871 134.414C126.595 130.616 139.625 133.683 139.758 133.723L139.611 134.294L139.438 135.011Z" fill="#9866FF"/>
<path d="M117.181 170.592C119.13 172.079 124.47 174.442 130.157 176.354C135.643 178.199 152.023 185.329 155.347 187.214C157.831 188.608 161.248 192.034 163.024 193.906V152.801L150.915 168.082L150.408 167.777C150.315 167.724 140.836 162.121 137.486 161.059C134.015 159.97 128.395 159.599 126.365 159.599C124.269 159.599 120.198 160.249 117.701 161.165C115.592 161.949 115.178 164.511 115.125 165.971C115.072 167.525 115.272 169.158 117.181 170.592ZM154.693 188.369C151.489 186.55 135.029 179.381 129.729 177.615C124.817 175.969 118.783 173.486 116.366 171.654C113.964 169.822 113.723 167.631 113.79 165.918C113.843 164.484 114.284 161.019 117.234 159.917C119.864 158.948 124.149 158.271 126.365 158.271C128.461 158.271 134.268 158.656 137.886 159.798C140.97 160.767 148.539 165.148 150.582 166.343L164.359 148.977V197.344L163.197 196.043C163.144 195.99 157.911 190.188 154.693 188.369Z" fill="#9866FF"/>
<path d="M112.204 135.688C96.3983 139.764 89.2829 151.646 89.2028 151.766L88.0547 151.102C88.1214 150.969 95.5305 138.609 111.871 134.413L112.204 135.688Z" fill="#9866FF"/>
<path d="M85.2782 161.896C85.2381 161.789 85.0245 161.179 84.584 160.17C85.4651 157.514 87.1471 152.629 88.0549 151.102L89.203 151.766C88.0416 153.744 85.3049 162.241 85.2782 162.321L84.6374 162.121L85.2782 161.896Z" fill="#9866FF"/>
<path d="M84.5846 160.17C85.0253 161.179 85.239 161.79 85.2791 161.896L84.638 162.121L84.0103 161.922C84.037 161.829 84.264 161.152 84.5846 160.17Z" fill="#9866FF"/>
<path d="M84.0069 162.334C83.9802 162.241 80.2289 151.779 71.5249 143.64L72.446 142.671C79.3478 149.137 83.1391 156.811 84.5809 160.17C84.2605 161.152 84.0336 161.829 84.0069 161.922L84.6343 162.121L84.0069 162.334Z" fill="#9866FF"/>
<path d="M115.315 201.699C121.255 203.93 128.651 206.705 132.429 208.51C137.649 210.993 139.745 214.339 138.863 218.72C138.289 221.588 133.75 223.34 133.243 223.526C132.816 223.606 125.273 225.027 115.889 223.208C107.612 221.601 99.4952 215.507 97.386 213.821L80.9792 233.112C81.6734 233.736 83.9295 235.555 91.2718 240.627C102.419 248.34 122.296 249.429 132.936 248.274C141.16 247.385 148.595 244.57 154.442 240.135C159.409 236.378 163.2 230.364 163.24 230.311L164.468 228.346V246.641C164.188 246.734 163.894 246.827 163.6 246.92L163.801 247.544H163.133V232.82C161.598 234.958 158.728 238.555 155.257 241.184C149.223 245.765 141.547 248.672 133.083 249.588C130.894 249.827 128.064 250 124.873 250C114.42 250 99.9491 248.261 90.4975 241.715C79.0969 233.829 79.2438 233.444 79.484 232.847L79.6709 232.355L79.8578 232.382L97.2258 211.962L97.733 212.387C97.8265 212.467 107.064 220.154 116.142 221.907C125.273 223.672 132.803 222.265 132.883 222.252C133.977 221.827 137.195 220.273 137.555 218.455C138.076 215.892 137.889 212.586 131.855 209.705C128.117 207.926 120.761 205.165 114.847 202.934C109.815 201.049 106.931 199.947 106.157 199.509C105.903 199.363 105.489 199.177 104.942 198.951C101.925 197.61 95.1566 194.596 89.5097 186.976C89.6298 196.07 89.483 200.783 88.949 205.058C88.3482 209.811 86.9465 220.951 82.0872 228.598C81.2863 229.859 80.4185 231.081 79.5241 232.249C75.1588 237.971 70.3128 242.18 70.2594 242.233L69.8189 241.729L70.0992 241.131C69.9657 241.065 69.8322 241.012 69.6987 240.945C71.0871 239.697 76.8808 234.334 80.9525 227.894C85.6649 220.499 87.04 209.559 87.6273 204.886C88.188 200.358 88.3215 195.287 88.1346 184.811L88.0946 182.501L89.3628 184.44C95.0097 193.07 102.352 196.336 105.489 197.73C106.077 197.995 106.531 198.194 106.824 198.354C107.545 198.765 111.149 200.119 115.315 201.699Z" fill="#9866FF"/>
<path d="M70.0977 241.131L69.8172 241.729L69.3765 241.224C69.3898 241.224 69.4967 241.118 69.697 240.945C69.8306 241.012 69.9642 241.065 70.0977 241.131Z" fill="#9866FF"/>
<path d="M50.424 132.847C51.3051 132.94 63.6002 134.387 72.451 142.671L71.5299 143.641C62.8793 135.529 50.384 134.174 50.2505 134.161L50.3039 133.643L50.424 132.847Z" fill="#9866FF"/>
<path d="M65.3602 7.95288L65.6674 8.53706C65.5739 8.59016 65.4804 8.62999 65.3869 8.6831C65.2934 8.62999 65.1999 8.59016 65.1064 8.55033L65.3602 7.95288Z" fill="#9866FF"/>
<path d="M50.3833 132.833C50.3959 132.833 50.3959 132.833 50.4211 132.847C50.4211 132.847 50.4085 132.847 50.3833 132.833Z" fill="#9866FF"/>
<path d="M50.4244 132.847L50.3042 133.643L50.3843 132.847C50.411 132.847 50.4244 132.847 50.4244 132.847Z" fill="#9866FF"/>
<path d="M41.9184 223.46C42.3458 223.818 42.7866 224.164 43.214 224.509C42.6397 224.549 42.0386 224.588 41.3841 224.628L41.3574 224.15L41.9184 223.46Z" fill="#9866FF"/>
<path d="M69.8185 241.729L69.5382 242.326C59.3657 237.653 49.794 231.639 41.0767 224.482L41.357 224.151L41.3837 224.628C42.0378 224.589 42.6386 224.549 43.2126 224.509C51.3826 231.041 60.2869 236.564 69.6984 240.946C69.4981 241.118 69.3913 241.224 69.378 241.224L69.8185 241.729Z" fill="#9866FF"/>
<path d="M41.3578 24.4293C40.8904 24.801 40.4362 25.186 39.9821 25.5711L39.5547 25.0798V24.4027H39.8352C40.3561 24.4027 40.8636 24.4027 41.3578 24.4293Z" fill="#9866FF"/>
<path d="M39.1162 24.5619C47.0459 17.8174 55.7766 12.0287 65.0547 7.35535L65.3617 7.95279L65.108 8.55024C65.2015 8.59007 65.295 8.62991 65.3884 8.68302C56.8446 13.0112 48.7547 18.2953 41.359 24.4292C40.865 24.4026 40.3577 24.4026 39.8371 24.4026H39.5568V25.0797L39.1162 24.5619Z" fill="#9866FF"/>
<path d="M54.9475 82.9527C48.019 89.1131 39.1815 89.9362 34.8963 89.9362C33.4412 89.9362 32.5067 89.8433 32.3732 89.83L31.7725 89.7636V33.1917C32.1463 32.8067 32.5334 32.4216 32.9205 32.0366L32.4399 31.5587H33.1074V88.5555C35.7106 88.7015 46.3236 88.8475 54.0664 81.9569C59.8869 76.779 62.8505 68.7998 62.8505 58.2713C62.8505 45.7381 60.0604 36.6436 54.5737 31.2267C48.8868 25.6372 42.0784 25.7036 39.849 25.7302H39.5553V25.0796L39.9825 25.5709C40.4364 25.1858 40.8903 24.8008 41.3575 24.4291C47.0712 24.6813 51.797 26.6463 55.5082 30.2841C61.2619 35.9665 64.1855 45.3797 64.1855 58.2713C64.1855 69.2113 61.075 77.5093 54.9475 82.9527Z" fill="#9866FF"/>
<path d="M50.2206 134.161C50.047 134.134 33.7204 131.705 20.1437 139.764L19.4629 138.622C33.133 130.523 49.4463 132.714 50.3808 132.846L50.3007 133.643L50.2206 134.161Z" fill="#9866FF"/>
<path d="M32.9211 32.0368C32.5338 32.4218 32.1464 32.8068 31.7725 33.1919V31.5588H32.4403L32.9211 32.0368Z" fill="#9866FF"/>
<path d="M25.4443 207.475C26.3521 208.55 27.2866 209.599 28.2478 210.648L27.7805 211.06L27.2198 211.391C26.4589 210.064 25.9249 208.922 25.4443 207.475Z" fill="#9866FF"/>
<path d="M52.6099 222.079C49.8466 223.818 47.7907 224.19 43.2118 224.509C42.7846 224.164 42.344 223.818 41.9169 223.46L41.3562 224.15L41.3028 223.301C46.963 222.955 49.0723 222.743 51.9024 220.951L52.3697 220.672C55.5736 218.707 63.0895 214.126 62.9827 192.379C62.8759 169.915 56.3078 164.246 56.2411 164.193L56.1343 164.073C56.0942 164.02 52.4498 159.36 43.6924 159.36C34.9083 159.36 29.9956 166.091 29.9422 166.158C29.9422 166.171 26.004 173.194 24.9894 179.103C24.0283 184.705 23.8013 194.145 25.0562 200.239C26.271 206.041 26.8184 208.006 28.3669 210.728L27.7795 211.06L28.2468 210.648C27.2856 209.599 26.3511 208.55 25.4434 207.475C24.896 205.802 24.4154 203.731 23.7479 200.505C22.5732 194.809 22.5465 185.515 23.6812 178.877C24.7225 172.743 28.6473 165.746 28.8208 165.441C29.0745 165.082 34.2274 158.032 43.6924 158.032C52.7034 158.032 56.6549 162.586 57.1488 163.21C57.9231 163.874 64.2108 170.074 64.3176 192.379C64.4244 214.857 56.468 219.729 53.0638 221.8L52.6099 222.079Z" fill="#9866FF"/>
<path d="M31.7737 33.1918C19.1716 45.8976 9.51983 60.741 3.09863 77.3368C3.09863 77.2837 3.09863 77.2439 3.09863 77.1908H2.43115L1.80371 76.9518C8.50525 59.639 18.6644 44.2115 31.974 31.0941L32.4412 31.5588H31.7737V33.1918Z" fill="#9866FF"/>
<path d="M27.2601 211.538C15.0051 198.155 5.83381 182.727 0 165.693L0.640799 165.481L1.28158 165.667C1.28158 165.654 1.30827 165.587 1.33497 165.468C6.64814 180.922 14.7514 195.035 25.4445 207.475C25.9251 208.922 26.4591 210.064 27.22 211.392L27.7807 211.06L27.2601 211.538Z" fill="#9866FF"/>
<path d="M0 165.295C0.0533987 165.109 5.44667 146.933 19.4638 138.622L20.1447 139.764C7.36904 147.331 1.9624 163.489 1.33497 165.467C1.30827 165.401 1.29494 165.334 1.26824 165.268L0.640799 165.48L0 165.295Z" fill="#9866FF"/>
<path d="M3.09557 77.1906C3.09557 77.2438 3.09557 77.2837 3.09557 77.3369C3.08221 77.3635 3.06885 77.4034 3.0555 77.43L2.42773 77.1906H3.09557Z" fill="#9866FF"/>
<path d="M1.68311 112.945C1.69646 112.905 1.7632 107.873 1.7632 77.1907H2.43068L3.05812 77.4297C3.07147 77.4031 3.08482 77.3633 3.09817 77.3367C3.09817 102.217 3.04477 110.17 3.03142 112.294H43.1605C53.3597 112.294 69.0055 105.935 77.536 95.3001C85.7193 85.1168 86.1732 77.2039 86.1732 77.1243L87.5082 77.1508V112.294H164.643V88.4493H116.103V67.4721H156.099V43.7467H116.103V25.0531H163.027V1.32767H87.5082V35.8338L86.1866 35.9533C86.1465 35.7541 82.462 16.0515 65.3878 8.68297C65.4812 8.62986 65.5747 8.59003 65.6681 8.53692L65.3611 7.95274L65.6281 7.32874C78.2435 12.6394 83.9038 24.3627 86.1732 30.9612V0H164.362V26.3808H117.438V42.419H157.434V57.1694V68.7998H117.438V87.1216H165.978V113.622H86.1732V82.9527C84.9851 86.3117 82.7691 90.9188 78.5772 96.1365C69.7932 107.076 53.6667 113.622 43.1605 113.622H1.68311V112.945Z" fill="#9866FF"/>
<path d="M1.26888 165.268C1.29559 165.334 1.30893 165.401 1.33564 165.467C1.30893 165.587 1.28223 165.653 1.28223 165.666L0.641113 165.48L1.26888 165.268Z" fill="#9866FF"/>
</svg>
